<!-- Google Material Symbols outlined commit 6d7ca43bd6e6668531a00fcaca06d921b63dd716; source: https://raw.githubusercontent.com/google/material-design-icons/6d7ca43bd6e6668531a00fcaca06d921b63dd716/symbols/web/settings_ethernet/materialsymbolsoutlined/settings_ethernet_24px.svg
Modified by Oma Prism: explicit white fill/stroke colors for alpha-preserving tint; original geometry retained. SVGs lacking viewBox use their original numeric width/height as the viewport. -->
<svg fill="#ffffff" xmlns="http://www.w3.org/2000/svg" height="24" viewBox="0 -960 960 960" width="24"><path d="m680-240-56-56 182-184-182-184 56-56 240 240-240 240Zm-400 0L40-480l240-240 56 56-182 184 182 184-56 56Zm40-200q-17 0-28.5-11.5T280-480q0-17 11.5-28.5T320-520q17 0 28.5 11.5T360-480q0 17-11.5 28.5T320-440Zm160 0q-17 0-28.5-11.5T440-480q0-17 11.5-28.5T480-520q17 0 28.5 11.5T520-480q0 17-11.5 28.5T480-440Zm160 0q-17 0-28.5-11.5T600-480q0-17 11.5-28.5T640-520q17 0 28.5 11.5T680-480q0 17-11.5 28.5T640-440Z"/></svg>
